<svg xmlns="http://www.w3.org/2000/svg" width="1615.866" height="784" viewBox="0 0 1615.866 784">
  <path id="União_3" data-name="União 3" d="M-1670.963,166.5a10.551,10.551,0,0,1-10.537-10.541V-324.526l.2-.11q-.2-3.611-.2-7.272a129.989,129.989,0,0,1,119.479-129.58v-.157s17.543-.675,21.592-2.362,2.937-9.449,2.937-9.449v-38.471l.547.4c-.03-1.019-.045-2.048-.045-3.074a102.88,102.88,0,0,1,101.161-102.88l.005-.014H-76.171a10.551,10.551,0,0,1,10.537,10.54V155.959A10.551,10.551,0,0,1-76.171,166.5Z" transform="translate(1681.5 617.5)" opacity="0.45"/>
</svg>
